<?xml version="1.0" encoding="UTF-8"?>
<svg xmlns="http://www.w3.org/2000/svg" xmlns:xlink="http://www.w3.org/1999/xlink" width="16px" height="16px" viewBox="0 0 16 16" version="1.1">
<defs>
<clipPath id="clip1">
  <path d="M 16 3.199219 L 16 12.800781 C 16 13.648438 15.664062 14.460938 15.0625 15.0625 C 14.460938 15.664062 13.648438 16 12.800781 16 L 3.199219 16 C 2.351562 16 1.539062 15.664062 0.9375 15.0625 C 0.335938 14.460938 0 13.648438 0 12.800781 L 0 3.199219 C 0 1.433594 1.433594 0 3.199219 0 L 12.800781 0 C 13.648438 0 14.460938 0.335938 15.0625 0.9375 C 15.664062 1.539062 16 2.351562 16 3.199219 Z M 16 3.199219 "/>
</clipPath>
<clipPath id="clip2">
  <path d="M 16 3.199219 L 16 12.800781 C 16 13.648438 15.664062 14.460938 15.0625 15.0625 C 14.460938 15.664062 13.648438 16 12.800781 16 L 3.199219 16 C 2.351562 16 1.539062 15.664062 0.9375 15.0625 C 0.335938 14.460938 0 13.648438 0 12.800781 L 0 3.199219 C 0 1.433594 1.433594 0 3.199219 0 L 12.800781 0 C 13.648438 0 14.460938 0.335938 15.0625 0.9375 C 15.664062 1.539062 16 2.351562 16 3.199219 Z M 16 3.199219 "/>
</clipPath>
<linearGradient id="linear0" gradientUnits="userSpaceOnUse" x1="0" y1="0" x2="256" y2="256" gradientTransform="matrix(0.0625,0,0,0.0625,0.000000192,0)">
<stop offset="0" style="stop-color:rgb(100%,100%,100%);stop-opacity:1;"/>
<stop offset="0.015625" style="stop-color:rgb(100%,100%,100%);stop-opacity:1;"/>
<stop offset="0.03125" style="stop-color:rgb(100%,100%,99.607843%);stop-opacity:1;"/>
<stop offset="0.046875" style="stop-color:rgb(100%,100%,99.215686%);stop-opacity:1;"/>
<stop offset="0.0625" style="stop-color:rgb(100%,99.607843%,99.215686%);stop-opacity:1;"/>
<stop offset="0.078125" style="stop-color:rgb(100%,99.607843%,98.823529%);stop-opacity:1;"/>
<stop offset="0.09375" style="stop-color:rgb(100%,99.607843%,98.431373%);stop-opacity:1;"/>
<stop offset="0.109375" style="stop-color:rgb(100%,99.607843%,98.039216%);stop-opacity:1;"/>
<stop offset="0.125" style="stop-color:rgb(100%,99.607843%,98.039216%);stop-opacity:1;"/>
<stop offset="0.140625" style="stop-color:rgb(100%,99.215686%,97.647059%);stop-opacity:1;"/>
<stop offset="0.15625" style="stop-color:rgb(100%,99.215686%,97.254902%);stop-opacity:1;"/>
<stop offset="0.171875" style="stop-color:rgb(100%,99.215686%,97.254902%);stop-opacity:1;"/>
<stop offset="0.1875" style="stop-color:rgb(100%,99.215686%,96.862745%);stop-opacity:1;"/>
<stop offset="0.203125" style="stop-color:rgb(100%,99.215686%,96.470588%);stop-opacity:1;"/>
<stop offset="0.21875" style="stop-color:rgb(100%,98.823529%,96.078431%);stop-opacity:1;"/>
<stop offset="0.234375" style="stop-color:rgb(100%,98.823529%,96.078431%);stop-opacity:1;"/>
<stop offset="0.25" style="stop-color:rgb(100%,98.823529%,95.686275%);stop-opacity:1;"/>
<stop offset="0.265625" style="stop-color:rgb(100%,98.823529%,95.294118%);stop-opacity:1;"/>
<stop offset="0.28125" style="stop-color:rgb(100%,98.823529%,95.294118%);stop-opacity:1;"/>
<stop offset="0.296875" style="stop-color:rgb(100%,98.823529%,94.901961%);stop-opacity:1;"/>
<stop offset="0.3125" style="stop-color:rgb(100%,98.431373%,94.509804%);stop-opacity:1;"/>
<stop offset="0.34375" style="stop-color:rgb(100%,98.431373%,94.509804%);stop-opacity:1;"/>
<stop offset="0.375" style="stop-color:rgb(100%,98.039216%,94.509804%);stop-opacity:1;"/>
<stop offset="0.40625" style="stop-color:rgb(100%,97.647059%,94.901961%);stop-opacity:1;"/>
<stop offset="0.4375" style="stop-color:rgb(100%,97.647059%,95.294118%);stop-opacity:1;"/>
<stop offset="0.46875" style="stop-color:rgb(100%,97.254902%,95.686275%);stop-opacity:1;"/>
<stop offset="0.5" style="stop-color:rgb(100%,96.862745%,96.078431%);stop-opacity:1;"/>
<stop offset="0.53125" style="stop-color:rgb(100%,96.470588%,96.078431%);stop-opacity:1;"/>
<stop offset="0.5625" style="stop-color:rgb(100%,96.078431%,96.470588%);stop-opacity:1;"/>
<stop offset="0.59375" style="stop-color:rgb(100%,95.686275%,96.862745%);stop-opacity:1;"/>
<stop offset="0.625" style="stop-color:rgb(100%,95.686275%,97.254902%);stop-opacity:1;"/>
<stop offset="0.65625" style="stop-color:rgb(100%,95.294118%,97.647059%);stop-opacity:1;"/>
<stop offset="0.6875" style="stop-color:rgb(100%,94.901961%,98.039216%);stop-opacity:1;"/>
<stop offset="0.703125" style="stop-color:rgb(99.607843%,94.901961%,98.039216%);stop-opacity:1;"/>
<stop offset="0.71875" style="stop-color:rgb(99.215686%,94.901961%,98.431373%);stop-opacity:1;"/>
<stop offset="0.734375" style="stop-color:rgb(98.823529%,94.901961%,98.431373%);stop-opacity:1;"/>
<stop offset="0.75" style="stop-color:rgb(98.431373%,94.901961%,98.431373%);stop-opacity:1;"/>
<stop offset="0.765625" style="stop-color:rgb(98.431373%,94.509804%,98.431373%);stop-opacity:1;"/>
<stop offset="0.78125" style="stop-color:rgb(98.039216%,94.509804%,98.823529%);stop-opacity:1;"/>
<stop offset="0.796875" style="stop-color:rgb(97.647059%,94.509804%,98.823529%);stop-opacity:1;"/>
<stop offset="0.8125" style="stop-color:rgb(97.254902%,94.509804%,98.823529%);stop-opacity:1;"/>
<stop offset="0.828125" style="stop-color:rgb(97.254902%,94.509804%,98.823529%);stop-opacity:1;"/>
<stop offset="0.84375" style="stop-color:rgb(96.862745%,94.509804%,99.215686%);stop-opacity:1;"/>
<stop offset="0.859375" style="stop-color:rgb(96.470588%,94.509804%,99.215686%);stop-opacity:1;"/>
<stop offset="0.875" style="stop-color:rgb(96.078431%,94.509804%,99.215686%);stop-opacity:1;"/>
<stop offset="0.890625" style="stop-color:rgb(96.078431%,94.509804%,99.215686%);stop-opacity:1;"/>
<stop offset="0.90625" style="stop-color:rgb(95.686275%,94.509804%,99.215686%);stop-opacity:1;"/>
<stop offset="0.921875" style="stop-color:rgb(95.294118%,94.509804%,99.607843%);stop-opacity:1;"/>
<stop offset="0.9375" style="stop-color:rgb(94.901961%,94.117647%,99.607843%);stop-opacity:1;"/>
<stop offset="0.953125" style="stop-color:rgb(94.901961%,94.117647%,99.607843%);stop-opacity:1;"/>
<stop offset="0.96875" style="stop-color:rgb(94.509804%,94.117647%,99.607843%);stop-opacity:1;"/>
<stop offset="0.984375" style="stop-color:rgb(94.117647%,94.117647%,100%);stop-opacity:1;"/>
<stop offset="1" style="stop-color:rgb(93.72549%,94.117647%,100%);stop-opacity:1;"/>
</linearGradient>
<clipPath id="clip3">
  <path d="M 16 3.199219 L 16 12.800781 C 16 13.648438 15.664062 14.460938 15.0625 15.0625 C 14.460938 15.664062 13.648438 16 12.800781 16 L 3.199219 16 C 2.351562 16 1.539062 15.664062 0.9375 15.0625 C 0.335938 14.460938 0 13.648438 0 12.800781 L 0 3.199219 C 0 1.433594 1.433594 0 3.199219 0 L 12.800781 0 C 13.648438 0 14.460938 0.335938 15.0625 0.9375 C 15.664062 1.539062 16 2.351562 16 3.199219 Z M 16 3.199219 "/>
</clipPath>
<linearGradient id="linear1" gradientUnits="userSpaceOnUse" x1="0" y1="0" x2="213.329956" y2="213.329956" gradientTransform="matrix(2.343787,0,0,2.343787,0,0)">
<stop offset="0" style="stop-color:rgb(100%,91.764706%,56.470588%);stop-opacity:1;"/>
<stop offset="0.00390625" style="stop-color:rgb(100%,91.764706%,56.862745%);stop-opacity:1;"/>
<stop offset="0.0078125" style="stop-color:rgb(100%,91.372549%,56.862745%);stop-opacity:1;"/>
<stop offset="0.0117188" style="stop-color:rgb(100%,91.372549%,57.254902%);stop-opacity:1;"/>
<stop offset="0.015625" style="stop-color:rgb(100%,91.372549%,57.647059%);stop-opacity:1;"/>
<stop offset="0.0195312" style="stop-color:rgb(100%,90.980392%,58.039216%);stop-opacity:1;"/>
<stop offset="0.0234375" style="stop-color:rgb(100%,90.980392%,58.039216%);stop-opacity:1;"/>
<stop offset="0.0273438" style="stop-color:rgb(100%,90.980392%,58.431373%);stop-opacity:1;"/>
<stop offset="0.03125" style="stop-color:rgb(100%,90.588235%,58.823529%);stop-opacity:1;"/>
<stop offset="0.0351562" style="stop-color:rgb(100%,90.588235%,58.823529%);stop-opacity:1;"/>
<stop offset="0.0390625" style="stop-color:rgb(100%,90.588235%,59.215686%);stop-opacity:1;"/>
<stop offset="0.0429688" style="stop-color:rgb(100%,90.196078%,59.607843%);stop-opacity:1;"/>
<stop offset="0.046875" style="stop-color:rgb(100%,90.196078%,60%);stop-opacity:1;"/>
<stop offset="0.0507812" style="stop-color:rgb(100%,90.196078%,60%);stop-opacity:1;"/>
<stop offset="0.0546875" style="stop-color:rgb(100%,89.803922%,60.392157%);stop-opacity:1;"/>
<stop offset="0.0585938" style="stop-color:rgb(100%,89.803922%,60.784314%);stop-opacity:1;"/>
<stop offset="0.0625" style="stop-color:rgb(100%,89.803922%,60.784314%);stop-opacity:1;"/>
<stop offset="0.0664062" style="stop-color:rgb(100%,89.411765%,61.176471%);stop-opacity:1;"/>
<stop offset="0.0703125" style="stop-color:rgb(100%,89.411765%,61.568627%);stop-opacity:1;"/>
<stop offset="0.0742188" style="stop-color:rgb(100%,89.411765%,61.960784%);stop-opacity:1;"/>
<stop offset="0.078125" style="stop-color:rgb(100%,89.019608%,61.960784%);stop-opacity:1;"/>
<stop offset="0.0820312" style="stop-color:rgb(100%,89.019608%,62.352941%);stop-opacity:1;"/>
<stop offset="0.0859375" style="stop-color:rgb(100%,89.019608%,62.745098%);stop-opacity:1;"/>
<stop offset="0.0898438" style="stop-color:rgb(100%,88.627451%,62.745098%);stop-opacity:1;"/>
<stop offset="0.09375" style="stop-color:rgb(100%,88.627451%,63.137255%);stop-opacity:1;"/>
<stop offset="0.0976562" style="stop-color:rgb(100%,88.235294%,63.529412%);stop-opacity:1;"/>
<stop offset="0.101562" style="stop-color:rgb(100%,88.235294%,63.921569%);stop-opacity:1;"/>
<stop offset="0.105469" style="stop-color:rgb(100%,88.235294%,63.921569%);stop-opacity:1;"/>
<stop offset="0.109375" style="stop-color:rgb(100%,87.843137%,64.313725%);stop-opacity:1;"/>
<stop offset="0.113281" style="stop-color:rgb(100%,87.843137%,64.705882%);stop-opacity:1;"/>
<stop offset="0.117188" style="stop-color:rgb(100%,87.843137%,64.705882%);stop-opacity:1;"/>
<stop offset="0.121094" style="stop-color:rgb(100%,87.45098%,65.098039%);stop-opacity:1;"/>
<stop offset="0.125" style="stop-color:rgb(100%,87.45098%,65.490196%);stop-opacity:1;"/>
<stop offset="0.128906" style="stop-color:rgb(100%,87.45098%,65.882353%);stop-opacity:1;"/>
<stop offset="0.132812" style="stop-color:rgb(100%,87.058824%,65.882353%);stop-opacity:1;"/>
<stop offset="0.136719" style="stop-color:rgb(100%,87.058824%,66.27451%);stop-opacity:1;"/>
<stop offset="0.140625" style="stop-color:rgb(100%,87.058824%,66.666667%);stop-opacity:1;"/>
<stop offset="0.144531" style="stop-color:rgb(100%,86.666667%,66.666667%);stop-opacity:1;"/>
<stop offset="0.148438" style="stop-color:rgb(100%,86.666667%,67.058824%);stop-opacity:1;"/>
<stop offset="0.152344" style="stop-color:rgb(100%,86.666667%,67.45098%);stop-opacity:1;"/>
<stop offset="0.15625" style="stop-color:rgb(100%,86.27451%,67.843137%);stop-opacity:1;"/>
<stop offset="0.160156" style="stop-color:rgb(100%,86.27451%,67.843137%);stop-opacity:1;"/>
<stop offset="0.164062" style="stop-color:rgb(100%,86.27451%,68.235294%);stop-opacity:1;"/>
<stop offset="0.167969" style="stop-color:rgb(100%,85.882353%,68.627451%);stop-opacity:1;"/>
<stop offset="0.171875" style="stop-color:rgb(100%,85.882353%,68.627451%);stop-opacity:1;"/>
<stop offset="0.175781" style="stop-color:rgb(100%,85.882353%,69.019608%);stop-opacity:1;"/>
<stop offset="0.179688" style="stop-color:rgb(100%,85.490196%,69.411765%);stop-opacity:1;"/>
<stop offset="0.183594" style="stop-color:rgb(100%,85.490196%,69.803922%);stop-opacity:1;"/>
<stop offset="0.1875" style="stop-color:rgb(100%,85.490196%,69.803922%);stop-opacity:1;"/>
<stop offset="0.191406" style="stop-color:rgb(100%,85.098039%,70.196078%);stop-opacity:1;"/>
<stop offset="0.195312" style="stop-color:rgb(100%,85.098039%,70.588235%);stop-opacity:1;"/>
<stop offset="0.199219" style="stop-color:rgb(100%,85.098039%,70.588235%);stop-opacity:1;"/>
<stop offset="0.203125" style="stop-color:rgb(100%,84.705882%,70.980392%);stop-opacity:1;"/>
<stop offset="0.207031" style="stop-color:rgb(100%,84.705882%,71.372549%);stop-opacity:1;"/>
<stop offset="0.210938" style="stop-color:rgb(100%,84.705882%,71.764706%);stop-opacity:1;"/>
<stop offset="0.214844" style="stop-color:rgb(100%,84.313725%,71.764706%);stop-opacity:1;"/>
<stop offset="0.21875" style="stop-color:rgb(100%,84.313725%,72.156863%);stop-opacity:1;"/>
<stop offset="0.222656" style="stop-color:rgb(100%,84.313725%,72.54902%);stop-opacity:1;"/>
<stop offset="0.226562" style="stop-color:rgb(100%,83.921569%,72.54902%);stop-opacity:1;"/>
<stop offset="0.230469" style="stop-color:rgb(100%,83.921569%,72.941176%);stop-opacity:1;"/>
<stop offset="0.234375" style="stop-color:rgb(100%,83.921569%,73.333333%);stop-opacity:1;"/>
<stop offset="0.238281" style="stop-color:rgb(100%,83.529412%,73.72549%);stop-opacity:1;"/>
<stop offset="0.242188" style="stop-color:rgb(100%,83.529412%,73.72549%);stop-opacity:1;"/>
<stop offset="0.246094" style="stop-color:rgb(100%,83.529412%,74.117647%);stop-opacity:1;"/>
<stop offset="0.25" style="stop-color:rgb(100%,83.137255%,74.509804%);stop-opacity:1;"/>
<stop offset="0.253906" style="stop-color:rgb(100%,83.137255%,74.901961%);stop-opacity:1;"/>
<stop offset="0.257812" style="stop-color:rgb(100%,83.137255%,74.901961%);stop-opacity:1;"/>
<stop offset="0.261719" style="stop-color:rgb(100%,82.745098%,75.294118%);stop-opacity:1;"/>
<stop offset="0.265625" style="stop-color:rgb(100%,82.745098%,75.686275%);stop-opacity:1;"/>
<stop offset="0.269531" style="stop-color:rgb(100%,82.745098%,75.686275%);stop-opacity:1;"/>
<stop offset="0.273438" style="stop-color:rgb(100%,82.352941%,76.078431%);stop-opacity:1;"/>
<stop offset="0.277344" style="stop-color:rgb(100%,82.352941%,76.470588%);stop-opacity:1;"/>
<stop offset="0.28125" style="stop-color:rgb(100%,81.960784%,76.862745%);stop-opacity:1;"/>
<stop offset="0.285156" style="stop-color:rgb(100%,81.960784%,76.862745%);stop-opacity:1;"/>
<stop offset="0.289062" style="stop-color:rgb(100%,81.960784%,77.254902%);stop-opacity:1;"/>
<stop offset="0.292969" style="stop-color:rgb(100%,81.568627%,77.647059%);stop-opacity:1;"/>
<stop offset="0.296875" style="stop-color:rgb(100%,81.568627%,77.647059%);stop-opacity:1;"/>
<stop offset="0.300781" style="stop-color:rgb(100%,81.568627%,78.039216%);stop-opacity:1;"/>
<stop offset="0.304688" style="stop-color:rgb(100%,81.176471%,78.431373%);stop-opacity:1;"/>
<stop offset="0.308594" style="stop-color:rgb(100%,81.176471%,78.823529%);stop-opacity:1;"/>
<stop offset="0.3125" style="stop-color:rgb(100%,81.176471%,78.823529%);stop-opacity:1;"/>
<stop offset="0.316406" style="stop-color:rgb(100%,80.784314%,79.215686%);stop-opacity:1;"/>
<stop offset="0.320312" style="stop-color:rgb(100%,80.784314%,79.607843%);stop-opacity:1;"/>
<stop offset="0.324219" style="stop-color:rgb(100%,80.784314%,79.607843%);stop-opacity:1;"/>
<stop offset="0.328125" style="stop-color:rgb(100%,80.392157%,80%);stop-opacity:1;"/>
<stop offset="0.332031" style="stop-color:rgb(100%,80.392157%,80.392157%);stop-opacity:1;"/>
<stop offset="0.335938" style="stop-color:rgb(100%,80.392157%,80.392157%);stop-opacity:1;"/>
<stop offset="0.339844" style="stop-color:rgb(99.607843%,80.392157%,80.784314%);stop-opacity:1;"/>
<stop offset="0.34375" style="stop-color:rgb(99.607843%,80.392157%,81.176471%);stop-opacity:1;"/>
<stop offset="0.347656" style="stop-color:rgb(99.607843%,80.392157%,81.176471%);stop-opacity:1;"/>
<stop offset="0.351562" style="stop-color:rgb(99.215686%,80.392157%,81.568627%);stop-opacity:1;"/>
<stop offset="0.355469" style="stop-color:rgb(99.215686%,80.392157%,81.568627%);stop-opacity:1;"/>
<stop offset="0.359375" style="stop-color:rgb(98.823529%,80.784314%,81.960784%);stop-opacity:1;"/>
<stop offset="0.363281" style="stop-color:rgb(98.823529%,80.784314%,82.352941%);stop-opacity:1;"/>
<stop offset="0.367188" style="stop-color:rgb(98.823529%,80.784314%,82.352941%);stop-opacity:1;"/>
<stop offset="0.371094" style="stop-color:rgb(98.431373%,80.784314%,82.745098%);stop-opacity:1;"/>
<stop offset="0.375" style="stop-color:rgb(98.431373%,80.784314%,82.745098%);stop-opacity:1;"/>
<stop offset="0.378906" style="stop-color:rgb(98.039216%,80.784314%,83.137255%);stop-opacity:1;"/>
<stop offset="0.382812" style="stop-color:rgb(98.039216%,80.784314%,83.137255%);stop-opacity:1;"/>
<stop offset="0.386719" style="stop-color:rgb(98.039216%,80.784314%,83.529412%);stop-opacity:1;"/>
<stop offset="0.390625" style="stop-color:rgb(97.647059%,80.784314%,83.921569%);stop-opacity:1;"/>
<stop offset="0.394531" style="stop-color:rgb(97.647059%,80.784314%,83.921569%);stop-opacity:1;"/>
<stop offset="0.398438" style="stop-color:rgb(97.254902%,80.784314%,84.313725%);stop-opacity:1;"/>
<stop offset="0.402344" style="stop-color:rgb(97.254902%,80.784314%,84.313725%);stop-opacity:1;"/>
<stop offset="0.40625" style="stop-color:rgb(97.254902%,81.176471%,84.705882%);stop-opacity:1;"/>
<stop offset="0.410156" style="stop-color:rgb(96.862745%,81.176471%,85.098039%);stop-opacity:1;"/>
<stop offset="0.414062" style="stop-color:rgb(96.862745%,81.176471%,85.098039%);stop-opacity:1;"/>
<stop offset="0.417969" style="stop-color:rgb(96.470588%,81.176471%,85.490196%);stop-opacity:1;"/>
<stop offset="0.421875" style="stop-color:rgb(96.470588%,81.176471%,85.490196%);stop-opacity:1;"/>
<stop offset="0.425781" style="stop-color:rgb(96.470588%,81.176471%,85.882353%);stop-opacity:1;"/>
<stop offset="0.429688" style="stop-color:rgb(96.078431%,81.176471%,85.882353%);stop-opacity:1;"/>
<stop offset="0.433594" style="stop-color:rgb(96.078431%,81.176471%,86.27451%);stop-opacity:1;"/>
<stop offset="0.4375" style="stop-color:rgb(95.686275%,81.176471%,86.666667%);stop-opacity:1;"/>
<stop offset="0.441406" style="stop-color:rgb(95.686275%,81.176471%,86.666667%);stop-opacity:1;"/>
<stop offset="0.445312" style="stop-color:rgb(95.686275%,81.176471%,87.058824%);stop-opacity:1;"/>
<stop offset="0.449219" style="stop-color:rgb(95.294118%,81.176471%,87.058824%);stop-opacity:1;"/>
<stop offset="0.453125" style="stop-color:rgb(95.294118%,81.568627%,87.45098%);stop-opacity:1;"/>
<stop offset="0.457031" style="stop-color:rgb(94.901961%,81.568627%,87.843137%);stop-opacity:1;"/>
<stop offset="0.460938" style="stop-color:rgb(94.901961%,81.568627%,87.843137%);stop-opacity:1;"/>
<stop offset="0.464844" style="stop-color:rgb(94.901961%,81.568627%,88.235294%);stop-opacity:1;"/>
<stop offset="0.46875" style="stop-color:rgb(94.509804%,81.568627%,88.235294%);stop-opacity:1;"/>
<stop offset="0.472656" style="stop-color:rgb(94.509804%,81.568627%,88.627451%);stop-opacity:1;"/>
<stop offset="0.476562" style="stop-color:rgb(94.117647%,81.568627%,88.627451%);stop-opacity:1;"/>
<stop offset="0.480469" style="stop-color:rgb(94.117647%,81.568627%,89.019608%);stop-opacity:1;"/>
<stop offset="0.484375" style="stop-color:rgb(94.117647%,81.568627%,89.411765%);stop-opacity:1;"/>
<stop offset="0.488281" style="stop-color:rgb(93.72549%,81.568627%,89.411765%);stop-opacity:1;"/>
<stop offset="0.492188" style="stop-color:rgb(93.72549%,81.568627%,89.803922%);stop-opacity:1;"/>
<stop offset="0.496094" style="stop-color:rgb(93.333333%,81.568627%,89.803922%);stop-opacity:1;"/>
<stop offset="0.5" style="stop-color:rgb(93.333333%,81.568627%,90.196078%);stop-opacity:1;"/>
<stop offset="0.503906" style="stop-color:rgb(93.333333%,81.960784%,90.588235%);stop-opacity:1;"/>
<stop offset="0.507812" style="stop-color:rgb(92.941176%,81.960784%,90.588235%);stop-opacity:1;"/>
<stop offset="0.511719" style="stop-color:rgb(92.941176%,81.960784%,90.980392%);stop-opacity:1;"/>
<stop offset="0.515625" style="stop-color:rgb(92.54902%,81.960784%,90.980392%);stop-opacity:1;"/>
<stop offset="0.519531" style="stop-color:rgb(92.54902%,81.960784%,91.372549%);stop-opacity:1;"/>
<stop offset="0.523437" style="stop-color:rgb(92.54902%,81.960784%,91.764706%);stop-opacity:1;"/>
<stop offset="0.527344" style="stop-color:rgb(92.156863%,81.960784%,91.764706%);stop-opacity:1;"/>
<stop offset="0.53125" style="stop-color:rgb(92.156863%,81.960784%,92.156863%);stop-opacity:1;"/>
<stop offset="0.535156" style="stop-color:rgb(91.764706%,81.960784%,92.156863%);stop-opacity:1;"/>
<stop offset="0.539062" style="stop-color:rgb(91.764706%,81.960784%,92.54902%);stop-opacity:1;"/>
<stop offset="0.542969" style="stop-color:rgb(91.764706%,81.960784%,92.54902%);stop-opacity:1;"/>
<stop offset="0.546875" style="stop-color:rgb(91.372549%,81.960784%,92.941176%);stop-opacity:1;"/>
<stop offset="0.550781" style="stop-color:rgb(91.372549%,82.352941%,93.333333%);stop-opacity:1;"/>
<stop offset="0.554687" style="stop-color:rgb(90.980392%,82.352941%,93.333333%);stop-opacity:1;"/>
<stop offset="0.558594" style="stop-color:rgb(90.980392%,82.352941%,93.72549%);stop-opacity:1;"/>
<stop offset="0.5625" style="stop-color:rgb(90.980392%,82.352941%,93.72549%);stop-opacity:1;"/>
<stop offset="0.566406" style="stop-color:rgb(90.588235%,82.352941%,94.117647%);stop-opacity:1;"/>
<stop offset="0.570312" style="stop-color:rgb(90.588235%,82.352941%,94.509804%);stop-opacity:1;"/>
<stop offset="0.574219" style="stop-color:rgb(90.196078%,82.352941%,94.509804%);stop-opacity:1;"/>
<stop offset="0.578125" style="stop-color:rgb(90.196078%,82.352941%,94.901961%);stop-opacity:1;"/>
<stop offset="0.582031" style="stop-color:rgb(90.196078%,82.352941%,94.901961%);stop-opacity:1;"/>
<stop offset="0.585937" style="stop-color:rgb(89.803922%,82.352941%,95.294118%);stop-opacity:1;"/>
<stop offset="0.589844" style="stop-color:rgb(89.803922%,82.352941%,95.294118%);stop-opacity:1;"/>
<stop offset="0.59375" style="stop-color:rgb(89.411765%,82.352941%,95.686275%);stop-opacity:1;"/>
<stop offset="0.597656" style="stop-color:rgb(89.411765%,82.745098%,96.078431%);stop-opacity:1;"/>
<stop offset="0.601562" style="stop-color:rgb(89.411765%,82.745098%,96.078431%);stop-opacity:1;"/>
<stop offset="0.605469" style="stop-color:rgb(89.019608%,82.745098%,96.470588%);stop-opacity:1;"/>
<stop offset="0.609375" style="stop-color:rgb(89.019608%,82.745098%,96.470588%);stop-opacity:1;"/>
<stop offset="0.613281" style="stop-color:rgb(88.627451%,82.745098%,96.862745%);stop-opacity:1;"/>
<stop offset="0.617187" style="stop-color:rgb(88.627451%,82.745098%,97.254902%);stop-opacity:1;"/>
<stop offset="0.621094" style="stop-color:rgb(88.627451%,82.745098%,97.254902%);stop-opacity:1;"/>
<stop offset="0.625" style="stop-color:rgb(88.235294%,82.745098%,97.647059%);stop-opacity:1;"/>
<stop offset="0.628906" style="stop-color:rgb(88.235294%,82.745098%,97.647059%);stop-opacity:1;"/>
<stop offset="0.632812" style="stop-color:rgb(87.843137%,82.745098%,98.039216%);stop-opacity:1;"/>
<stop offset="0.636719" style="stop-color:rgb(87.843137%,82.745098%,98.039216%);stop-opacity:1;"/>
<stop offset="0.640625" style="stop-color:rgb(87.843137%,82.745098%,98.431373%);stop-opacity:1;"/>
<stop offset="0.644531" style="stop-color:rgb(87.45098%,83.137255%,98.823529%);stop-opacity:1;"/>
<stop offset="0.648437" style="stop-color:rgb(87.45098%,83.137255%,98.823529%);stop-opacity:1;"/>
<stop offset="0.652344" style="stop-color:rgb(87.058824%,83.137255%,99.215686%);stop-opacity:1;"/>
<stop offset="0.65625" style="stop-color:rgb(87.058824%,83.137255%,99.215686%);stop-opacity:1;"/>
<stop offset="0.660156" style="stop-color:rgb(87.058824%,83.137255%,99.607843%);stop-opacity:1;"/>
<stop offset="0.664062" style="stop-color:rgb(86.666667%,83.137255%,100%);stop-opacity:1;"/>
<stop offset="0.671875" style="stop-color:rgb(86.666667%,83.137255%,100%);stop-opacity:1;"/>
<stop offset="0.679687" style="stop-color:rgb(86.27451%,83.137255%,100%);stop-opacity:1;"/>
<stop offset="0.6875" style="stop-color:rgb(85.882353%,83.137255%,100%);stop-opacity:1;"/>
<stop offset="0.695312" style="stop-color:rgb(85.490196%,83.137255%,100%);stop-opacity:1;"/>
<stop offset="0.703125" style="stop-color:rgb(85.098039%,83.137255%,100%);stop-opacity:1;"/>
<stop offset="0.710937" style="stop-color:rgb(84.705882%,83.137255%,100%);stop-opacity:1;"/>
<stop offset="0.71875" style="stop-color:rgb(84.705882%,83.529412%,100%);stop-opacity:1;"/>
<stop offset="0.726562" style="stop-color:rgb(84.313725%,83.529412%,100%);stop-opacity:1;"/>
<stop offset="0.734375" style="stop-color:rgb(83.921569%,83.529412%,100%);stop-opacity:1;"/>
<stop offset="0.742187" style="stop-color:rgb(83.529412%,83.529412%,100%);stop-opacity:1;"/>
<stop offset="0.75" style="stop-color:rgb(83.137255%,83.529412%,100%);stop-opacity:1;"/>
<stop offset="0.757812" style="stop-color:rgb(82.745098%,83.529412%,100%);stop-opacity:1;"/>
<stop offset="0.765625" style="stop-color:rgb(82.352941%,83.529412%,100%);stop-opacity:1;"/>
<stop offset="0.773437" style="stop-color:rgb(81.960784%,83.529412%,100%);stop-opacity:1;"/>
<stop offset="0.78125" style="stop-color:rgb(81.568627%,83.529412%,100%);stop-opacity:1;"/>
<stop offset="0.789062" style="stop-color:rgb(81.568627%,83.529412%,100%);stop-opacity:1;"/>
<stop offset="0.796875" style="stop-color:rgb(81.176471%,83.921569%,100%);stop-opacity:1;"/>
<stop offset="0.804687" style="stop-color:rgb(80.784314%,83.921569%,100%);stop-opacity:1;"/>
<stop offset="0.8125" style="stop-color:rgb(80.392157%,83.921569%,100%);stop-opacity:1;"/>
<stop offset="0.820312" style="stop-color:rgb(80%,83.921569%,100%);stop-opacity:1;"/>
<stop offset="0.828125" style="stop-color:rgb(79.607843%,83.921569%,100%);stop-opacity:1;"/>
<stop offset="0.835937" style="stop-color:rgb(79.215686%,83.921569%,100%);stop-opacity:1;"/>
<stop offset="0.84375" style="stop-color:rgb(78.823529%,83.921569%,100%);stop-opacity:1;"/>
<stop offset="0.851562" style="stop-color:rgb(78.431373%,83.921569%,100%);stop-opacity:1;"/>
<stop offset="0.859375" style="stop-color:rgb(78.039216%,83.921569%,100%);stop-opacity:1;"/>
<stop offset="0.867187" style="stop-color:rgb(78.039216%,83.921569%,100%);stop-opacity:1;"/>
<stop offset="0.875" style="stop-color:rgb(77.647059%,83.921569%,100%);stop-opacity:1;"/>
<stop offset="0.882812" style="stop-color:rgb(77.254902%,84.313725%,100%);stop-opacity:1;"/>
<stop offset="0.890625" style="stop-color:rgb(76.862745%,84.313725%,100%);stop-opacity:1;"/>
<stop offset="0.898437" style="stop-color:rgb(76.470588%,84.313725%,100%);stop-opacity:1;"/>
<stop offset="0.90625" style="stop-color:rgb(76.078431%,84.313725%,100%);stop-opacity:1;"/>
<stop offset="0.914062" style="stop-color:rgb(75.686275%,84.313725%,100%);stop-opacity:1;"/>
<stop offset="0.921875" style="stop-color:rgb(75.294118%,84.313725%,100%);stop-opacity:1;"/>
<stop offset="0.929687" style="stop-color:rgb(74.901961%,84.313725%,100%);stop-opacity:1;"/>
<stop offset="0.9375" style="stop-color:rgb(74.901961%,84.313725%,100%);stop-opacity:1;"/>
<stop offset="0.945312" style="stop-color:rgb(74.509804%,84.313725%,100%);stop-opacity:1;"/>
<stop offset="0.953125" style="stop-color:rgb(74.117647%,84.313725%,100%);stop-opacity:1;"/>
<stop offset="0.960937" style="stop-color:rgb(73.72549%,84.313725%,100%);stop-opacity:1;"/>
<stop offset="0.96875" style="stop-color:rgb(73.333333%,84.705882%,100%);stop-opacity:1;"/>
<stop offset="0.976562" style="stop-color:rgb(72.941176%,84.705882%,100%);stop-opacity:1;"/>
<stop offset="0.984375" style="stop-color:rgb(72.54902%,84.705882%,100%);stop-opacity:1;"/>
<stop offset="0.992187" style="stop-color:rgb(72.156863%,84.705882%,100%);stop-opacity:1;"/>
<stop offset="1" style="stop-color:rgb(71.764706%,84.705882%,100%);stop-opacity:1;"/>
</linearGradient>
</defs>
<g id="surface1">
<g clip-path="url(#clip1)" clip-rule="nonzero">
<g clip-path="url(#clip2)" clip-rule="nonzero">
<rect x="0" y="0" width="16" height="16" style="fill:url(#linear0);stroke:none;"/>
</g>
</g>
<g clip-path="url(#clip3)" clip-rule="nonzero">
<path style="fill:none;stroke-width:60;stroke-linecap:butt;stroke-linejoin:miter;stroke:url(#linear1);stroke-miterlimit:4;" d="M 499.99997 99.975581 L 499.99997 400.024395 C 499.99997 426.513652 489.501924 452.026346 470.703097 470.703103 C 452.02634 489.50193 426.513646 499.999976 400.024389 499.999976 L 99.975575 499.999976 C 73.486319 499.999976 48.095695 489.50193 29.296868 470.703103 C 10.620111 452.026346 -0.000006 426.513652 -0.000006 400.024395 L -0.000006 99.975581 C -0.000006 44.799803 44.799797 0 99.975575 0 L 400.024389 0 C 426.513646 0 452.02634 10.620117 470.703097 29.296874 C 489.501924 48.095701 499.99997 73.486325 499.99997 99.975581 Z M 499.99997 99.975581 " transform="matrix(0.032,0,0,0.032,0.000000192,0)"/>
</g>
<path style=" stroke:none;fill-rule:nonzero;fill:rgb(100%,76.47059%,26.666668%);fill-opacity:1;" d="M 7.4375 2.101562 C 7.4375 2.101562 8.429688 2.089844 9.445312 2.71875 C 10.464844 3.347656 11.054688 3.949219 11.246094 4.339844 C 11.4375 4.734375 12.070312 5.417969 12.058594 6.675781 C 12.046875 7.933594 11.757812 8.773438 11.261719 9.472656 C 10.765625 10.171875 9.875 10.703125 8.800781 10.730469 C 7.726562 10.757812 7.039062 10.058594 6.808594 9.667969 C 6.574219 9.277344 6.476562 8.4375 6.765625 7.835938 C 7.054688 7.234375 7.507812 7.234375 7.660156 7.289062 C 7.8125 7.347656 7.851562 7.429688 7.933594 7.585938 C 8.015625 7.738281 8.070312 7.710938 8.195312 7.625 C 8.320312 7.542969 8.359375 7.445312 8.332031 7.320312 C 8.304688 7.195312 8.140625 7.039062 8.003906 6.996094 C 7.867188 6.953125 7.671875 6.828125 7.398438 6.871094 C 7.125 6.914062 6.585938 7.054688 6.132812 7.667969 C 5.679688 8.28125 5.734375 9.234375 6.007812 9.679688 C 6.285156 10.128906 6.808594 10.96875 7.960938 11.261719 C 9.117188 11.554688 10.984375 10.6875 11.632812 9.34375 C 12.277344 8.003906 12.292969 7.375 12.265625 6.269531 C 12.234375 5.164062 11.261719 3.515625 10.175781 2.914062 C 9.089844 2.3125 8.277344 1.960938 7.4375 2.101562 Z M 7.4375 2.101562 "/>
<path style=" stroke:none;fill-rule:nonzero;fill:rgb(94.117647%,40.392157%,40.392157%);fill-opacity:1;" d="M 8.015625 7.6875 C 8.015625 7.6875 7.742188 7.429688 7.5 7.886719 C 7.257812 8.34375 7.140625 8.746094 7.382812 9.242188 C 7.625 9.734375 8.132812 10.03125 8.90625 10.023438 C 9.6875 10.011719 10.257812 9.824219 10.601562 9.261719 C 10.9375 8.695312 11.203125 8.28125 11.230469 8.074219 C 11.261719 7.867188 11.414062 8.105469 11.367188 8.28125 C 11.320312 8.460938 11.328125 8.804688 11.464844 8.738281 C 11.601562 8.667969 11.707031 8.558594 11.726562 8.609375 C 11.746094 8.65625 11.570312 8.964844 11.488281 9.117188 C 11.40625 9.273438 11.148438 9.640625 11 9.785156 C 10.847656 9.929688 10.640625 10.132812 10.390625 10.28125 C 10.140625 10.429688 9.757812 10.601562 9.546875 10.640625 C 9.332031 10.679688 8.902344 10.765625 8.660156 10.753906 C 8.417969 10.742188 8.105469 10.699219 7.761719 10.527344 C 7.414062 10.351562 7.042969 10.085938 6.898438 9.820312 C 6.75 9.554688 6.527344 9.3125 6.578125 8.640625 C 6.625 7.964844 6.84375 7.621094 7.007812 7.460938 C 7.171875 7.304688 7.414062 7.234375 7.578125 7.269531 C 7.738281 7.304688 7.839844 7.398438 7.878906 7.46875 C 7.917969 7.535156 7.980469 7.664062 8.015625 7.6875 Z M 8.015625 7.6875 "/>
<path style=" stroke:none;fill-rule:nonzero;fill:rgb(24.705882%,38.431373%,92.156863%);fill-opacity:1;" d="M 10.484375 11.25 C 10.484375 11.25 11.648438 10.566406 12.195312 9.488281 C 12.738281 8.410156 12.96875 7.71875 12.902344 6.660156 C 12.835938 5.601562 12.671875 6.125 12.855469 5.671875 C 13.039062 5.21875 12.738281 4.316406 12.863281 4.257812 C 12.992188 4.199219 13.261719 4.652344 13.339844 5.019531 C 13.417969 5.382812 13.757812 6.511719 13.484375 7.945312 C 13.214844 9.378906 12.570312 9.953125 12.144531 10.339844 C 11.71875 10.726562 10.746094 11.398438 10.601562 11.386719 C 10.453125 11.375 10.433594 11.375 10.484375 11.25 Z M 10.484375 11.25 "/>
<path style=" stroke:none;fill-rule:nonzero;fill:rgb(98.823529%,88.235295%,0.784314%);fill-opacity:1;" d="M 8.382812 9.171875 C 8.382812 9.171875 9.007812 9.3125 9.480469 9.015625 C 9.957031 8.71875 10.328125 8.234375 10.386719 8.046875 C 10.445312 7.859375 10.453125 8.210938 10.523438 8.035156 C 10.589844 7.859375 10.863281 7.5 10.726562 6.671875 C 10.589844 5.839844 10.578125 5.800781 10.328125 5.355469 C 10.074219 4.910156 9.472656 4.296875 9.101562 4.101562 C 8.734375 3.902344 8.21875 3.605469 7.507812 3.625 C 6.796875 3.644531 7.03125 3.59375 6.351562 3.714844 C 5.671875 3.832031 5.058594 4.160156 4.855469 4.335938 C 4.652344 4.515625 4.109375 5 3.914062 5.265625 C 3.71875 5.53125 3.183594 6.136719 2.902344 6.976562 C 2.617188 7.816406 2.503906 7.90625 2.484375 8.460938 C 2.464844 9.015625 2.53125 9.164062 2.414062 9.210938 C 2.296875 9.261719 2.320312 8.796875 2.328125 8.46875 C 2.335938 8.144531 2.335938 7.292969 2.765625 6.34375 C 3.195312 5.394531 3.953125 4.601562 4.378906 4.316406 C 4.804688 4.03125 5.304688 3.644531 6.070312 3.457031 C 6.835938 3.269531 7.605469 3.296875 8.082031 3.386719 C 8.558594 3.476562 9.296875 3.78125 9.695312 4.089844 C 10.09375 4.398438 10.53125 4.773438 10.863281 5.382812 C 11.191406 6 11.28125 6.78125 11.269531 7.105469 C 11.261719 7.429688 11.09375 8.183594 10.84375 8.546875 C 10.589844 8.914062 10.25 9.351562 9.898438 9.507812 C 9.550781 9.664062 9.121094 9.71875 8.773438 9.558594 C 8.421875 9.398438 8.441406 9.339844 8.382812 9.171875 Z M 8.382812 9.171875 "/>
<path style=" stroke:none;fill-rule:nonzero;fill:rgb(36.862746%,85.09804%,21.960784%);fill-opacity:1;" d="M 8.382812 9.171875 C 8.382812 9.171875 8.875 9.3125 9.292969 9.125 C 9.707031 8.933594 9.863281 8.75 9.960938 8.644531 C 10.0625 8.535156 10.25 8.332031 10.304688 8.238281 C 10.351562 8.144531 10.40625 8.085938 10.40625 8.054688 C 10.40625 8.015625 10.3125 7.933594 10.40625 7.730469 C 10.5 7.527344 10.578125 7.0625 10.539062 6.851562 C 10.5 6.644531 10.402344 5.480469 9.578125 4.703125 C 8.75 3.929688 7.933594 3.835938 7.933594 3.835938 C 7.933594 3.835938 9.242188 4.25 9.851562 5.5 C 10.464844 6.75 10.265625 7.554688 9.875 8.046875 C 9.480469 8.535156 8.921875 8.59375 8.773438 8.464844 C 8.621094 8.339844 8.3125 9.039062 8.382812 9.171875 Z M 8.382812 9.171875 "/>
<path style=" stroke:none;fill-rule:nonzero;fill:rgb(56.078434%,85.882354%,91.37255%);fill-opacity:1;" d="M 6.792969 4.683594 C 6.792969 4.683594 5.914062 4.675781 5.246094 5.117188 C 4.578125 5.554688 4.257812 5.914062 4.070312 6.195312 C 3.886719 6.472656 3.671875 6.859375 3.703125 6.851562 C 3.726562 6.84375 4.503906 5.757812 5.109375 5.480469 C 5.714844 5.199219 6.320312 4.808594 7.148438 5.09375 C 7.984375 5.382812 8.375 5.78125 8.554688 5.683594 C 8.730469 5.585938 8.765625 5.464844 8.664062 5.332031 C 8.558594 5.199219 7.832031 4.550781 6.792969 4.683594 Z M 6.792969 4.683594 "/>
<path style=" stroke:none;fill-rule:nonzero;fill:rgb(99.215686%,47.843137%,100%);fill-opacity:1;" d="M 5.476562 10.269531 C 5.535156 10.300781 5.972656 11.0625 6.320312 11.1875 C 6.671875 11.320312 6.90625 11.328125 6.945312 11.386719 C 6.984375 11.445312 6.976562 11.742188 7.285156 11.871094 C 7.59375 12 9.054688 12.40625 9.472656 12.445312 C 9.890625 12.484375 9.539062 12.734375 9.792969 12.820312 C 10.046875 12.910156 11.125 12.960938 11.386719 12.851562 C 11.648438 12.742188 11.648438 12.949219 11.191406 13.125 C 10.734375 13.304688 9.53125 13.730469 8.742188 13.632812 C 7.957031 13.53125 7.023438 13.367188 6.5 12.988281 C 5.972656 12.613281 5.75 12.445312 5.945312 12.414062 C 6.140625 12.386719 6.652344 12.9375 6.875 13 C 7.101562 13.058594 7.285156 13.058594 7.148438 12.921875 C 7.011719 12.78125 6.128906 12.167969 6.039062 12.199219 C 5.953125 12.226562 5.769531 12.246094 5.613281 12.039062 C 5.457031 11.832031 4.640625 10.6875 4.6875 10.070312 C 4.738281 9.460938 4.894531 9.617188 5.078125 9.84375 C 5.265625 10.070312 5.476562 10.269531 5.476562 10.269531 Z M 5.476562 10.269531 "/>
</g>
</svg>
