<svg width="16" height="16" xmlns="http://www.w3.org/2000/svg" stroke="null" style="vector-effect: non-scaling-stroke;">

 <g stroke="null">
  <title stroke="null">Layer 1</title>
  <path transform="rotate(-180 8 8)" stroke="null" id="svg_1" d="m8,1c3.86599,0 7,3.13401 7,7c0,3.86599 -3.13401,7 -7,7c-3.86599,0 -7,-3.13401 -7,-7c0,-3.86599 3.13401,-7 7,-7zm1.5,7l-3,0c-0.27614,0 -0.5,0.22386 -0.5,0.5c0,0.27614 -0.22386,0.5 -0.5,0.5l0,0l-0.5,0c-0.10986,0 -0.21521,0.04364 -0.29289,0.12132c-0.16176,0.16176 -0.16176,0.42403 0,0.58579l0,0l2.93934,2.93934c0.19526,0.19526 0.51184,0.19526 0.7071,0l0,0l2.93934,-2.93934c0.07768,-0.07768 0.12132,-0.18304 0.12132,-0.2929c0,-0.22876 -0.18545,-0.41421 -0.41421,-0.41421l0,0l-0.5,0c-0.27614,0 -0.5,-0.22386 -0.5,-0.5c0,-0.27614 -0.22386,-0.5 -0.5,-0.5l0,0zm0,-2l-3,0c-0.27614,0 -0.5,0.22386 -0.5,0.5c0,0.27614 0.22386,0.5 0.5,0.5l0,0l3,0c0.27614,0 0.5,-0.22386 0.5,-0.5c0,-0.27614 -0.22386,-0.5 -0.5,-0.5l0,0zm0,-2l-3,0c-0.27614,0 -0.5,0.22386 -0.5,0.5c0,0.27614 0.22386,0.5 0.5,0.5l0,0l3,0c0.27614,0 0.5,-0.22386 0.5,-0.5c0,-0.27614 -0.22386,-0.5 -0.5,-0.5l0,0z" fill-rule="evenodd"/>
 </g>
</svg>